<svg width="400" height="400" viewBox="15 25 150 150" fill="none" xmlns="http://www.w3.org/2000/svg">
<path fill-rule="evenodd" clip-rule="evenodd" d="M89 43C117.719 43 141 66.2812 141 95C141 99.6367 140.393 104.132 139.255 108.41L109.951 60.0236H109.917C107.284 56.0164 102.749 53.3706 97.5959 53.3706C92.4428 53.3706 87.9077 56.0164 85.275 60.0236H85.2401L84.8749 60.6681C84.8043 60.7886 84.7354 60.9103 84.6681 61.033L52.5497 117.712C51.2783 119.89 50.5499 122.424 50.5499 125.128C50.5499 127.436 51.0808 129.62 52.0272 131.565C42.7366 122.172 37 109.256 37 95C37 66.2812 60.2812 43 89 43ZM62.1109 139.517C63.1321 139.741 64.193 139.859 65.2815 139.859C73.4175 139.859 80.013 133.264 80.013 125.128C80.013 122.518 79.3346 120.067 78.1444 117.941L78.1519 117.938L70.9735 105.515C67.1058 98.8163 69.4011 90.2501 76.1003 86.3823C82.7994 82.5145 91.3656 84.8098 95.2334 91.509L120.555 134.424L120.565 134.42C120.829 134.848 121.114 135.262 121.418 135.66C112.528 142.757 101.26 147 89 147C79.1592 147 69.9569 144.266 62.1109 139.517Z" fill="white"/>
</svg>